<svg width="25" height="25" viewBox="0 0 25 25" fill="none" xmlns="http://www.w3.org/2000/svg">
<path d="M24.9813 8.54548L24.9718 8.49858C24.9657 8.4673 24.9625 8.43916 24.9532 8.40789C24.9468 8.38913 24.9407 8.3735 24.9375 8.35474C24.9282 8.32972 24.922 8.30158 24.9095 8.27655C24.9032 8.25779 24.8938 8.24216 24.8845 8.2234C24.872 8.19838 24.8595 8.17649 24.847 8.15148C24.8376 8.13584 24.8283 8.11708 24.8158 8.10145C24.7908 8.06391 24.7626 8.02639 24.7345 7.98887C24.7189 7.97011 24.7001 7.94822 24.6814 7.92946C24.6689 7.91382 24.6533 7.90132 24.6377 7.8888C24.6189 7.87004 24.5971 7.8544 24.5784 7.83877C24.5627 7.82626 24.5471 7.81375 24.5284 7.80125C24.5221 7.79812 24.5159 7.79187 24.5097 7.78874L13.0935 0.180636C12.9173 0.0628597 12.7102 0 12.4985 0C12.2866 0 12.0796 0.0628597 11.9034 0.180636L0.48101 7.79499C0.474763 7.79812 0.468515 7.80437 0.462268 7.8075C0.446651 7.82001 0.431035 7.83251 0.412293 7.84502C0.390429 7.86066 0.371689 7.87942 0.352949 7.89505C0.337332 7.90757 0.324838 7.9232 0.309221 7.93571C0.290479 7.95447 0.271739 7.97324 0.256122 7.99512C0.224887 8.02952 0.1999 8.06704 0.174913 8.1077C0.165542 8.12334 0.153049 8.13897 0.143678 8.15773C0.131185 8.17962 0.11869 8.20463 0.106197 8.22965C0.0968266 8.24528 0.0905797 8.26404 0.0812093 8.28281C0.071839 8.30783 0.0624687 8.33597 0.0530984 8.36099C0.0468515 8.37975 0.0406046 8.39538 0.0374812 8.41414C0.0312342 8.44229 0.0249875 8.47357 0.0187405 8.50484L0.00937017 8.55174C0.00312329 8.59864 0 8.64555 0 8.69246V16.3068C0 16.3537 0.00312329 16.4007 0.00937017 16.4475L0.0187405 16.4945L0.0374812 16.5851C0.043728 16.6039 0.0468515 16.6196 0.0530984 16.6383C0.0624687 16.6664 0.071839 16.6914 0.0812093 16.7164C0.0874562 16.7352 0.0968266 16.7509 0.106197 16.7696C0.11869 16.7947 0.128061 16.8165 0.143678 16.8415C0.153049 16.8572 0.162418 16.876 0.174913 16.8915C0.190529 16.9135 0.203024 16.9353 0.221764 16.9573L0.259246 17.0041C0.274862 17.0229 0.293603 17.0448 0.312343 17.0636C0.324838 17.0792 0.340454 17.0917 0.356072 17.1042C0.374813 17.1229 0.396676 17.1386 0.415417 17.1542C0.431035 17.1667 0.446652 17.1792 0.465392 17.1917C0.471639 17.1949 0.477886 17.2012 0.484133 17.2042L11.9034 24.8186C12.0784 24.9375 12.2876 25 12.5 25C12.7062 25 12.9154 24.9405 13.0966 24.8186L24.5159 17.2042C24.5221 17.2012 24.5284 17.1949 24.5346 17.1917C24.5502 17.1792 24.5659 17.1667 24.5846 17.1542C24.6064 17.1386 24.6252 17.1199 24.6439 17.1042C24.6596 17.0917 24.6721 17.0761 24.6876 17.0636C24.7064 17.0448 24.7251 17.026 24.7408 17.0041L24.7783 16.9573L24.8251 16.8915C24.8345 16.876 24.847 16.8603 24.8563 16.8415C24.8688 16.8165 24.8813 16.7947 24.8938 16.7696C24.9032 16.754 24.9095 16.7352 24.9188 16.7164C24.9282 16.6914 24.9375 16.6633 24.9468 16.6383C24.9532 16.6226 24.9593 16.6039 24.9625 16.5851C24.9718 16.557 24.975 16.5257 24.9813 16.4945L24.9907 16.4475C24.9968 16.4007 25 16.3537 25 16.3068V8.6862C24.9907 8.63929 24.9875 8.59239 24.9813 8.54548ZM13.5713 3.0794L21.9859 8.68933L18.2284 11.2035L13.5745 8.08893V3.0794H13.5713ZM11.4224 3.0794V8.08893L6.76849 11.2035L3.011 8.68933L11.4224 3.0794ZM2.14892 10.6969L4.83509 12.4949L2.14892 14.293V10.6969ZM11.4224 21.9074L3.011 16.2974L6.76849 13.7833L11.4224 16.8978V21.9074ZM12.4968 15.0341L8.69877 12.4949L12.4968 9.95265L16.295 12.4918L12.4968 15.0341ZM13.5713 21.9074V16.8978L18.2252 13.7833L21.9827 16.2974L13.5713 21.9074ZM22.8448 14.2899L20.1587 12.4918L22.8448 10.6938V14.2899Z" fill="#0184B1"/>
</svg>
