<svg width="940" height="1080" viewBox="0 0 940 1080" fill="none" xmlns="http://www.w3.org/2000/svg">
<g clip-path="url(#clip0)">
<path d="M550.813 -50.8957C441.872 -12.5032 346.763 57.3317 277.511 149.778C208.26 242.224 167.978 353.13 161.758 468.47C155.538 583.81 183.661 698.404 242.569 797.762C301.476 897.119 388.524 976.777 492.705 1026.66C596.885 1076.55 713.518 1094.42 827.855 1078.02C942.193 1061.62 1049.1 1011.68 1135.05 934.518C1221.01 857.358 1282.16 756.443 1310.76 644.532C1339.36 532.622 1334.13 414.743 1295.74 305.802C1244.25 159.723 1136.84 40.079 997.145 -26.8136C857.447 -93.7062 696.898 -102.369 550.813 -50.8957ZM921.753 1001.67C645.103 1099.16 340.674 953.392 243.178 676.743C145.682 400.093 291.454 95.6631 568.103 -1.83272C844.753 -99.3285 1149.18 46.4431 1246.68 323.093C1344.17 599.742 1198.4 904.172 921.753 1001.67Z" fill="#0185B2" fill-opacity="0.3"/>
<path d="M1188.22 316.117C1182.77 302.96 1176.75 290.152 1170.28 277.726C1147.86 234.714 1119 195.384 1084.68 161.101C1000.36 77.0504 887.992 27.0679 769.103 20.7296C715.467 17.9656 661.749 24.2785 610.214 39.4021L928.753 943.273C978.379 922.738 1024.19 893.977 1064.24 858.202L925.295 463.932L1156.38 382.493C1160.38 396.481 1163.67 410.661 1166.24 424.981C1174.76 473.03 1174.97 522.184 1166.86 570.303C1160.43 608.317 1148.94 645.299 1132.7 680.264L1179.54 702.696C1201.92 654.756 1216.27 603.463 1222.01 550.869C1227.22 503.041 1225.14 454.701 1215.86 407.495C1213.1 393.392 1209.66 379.331 1205.56 365.31C1203.14 357.004 1200.54 348.691 1197.66 340.514C1194.78 332.336 1191.56 324.132 1188.22 316.117ZM958.381 870.835L678.666 77.1275C696.345 74.3371 714.184 72.6805 732.074 72.168L1003.1 841.214C988.84 852.031 973.903 861.925 958.381 870.835ZM908.004 414.869L787.95 74.2083C877.598 83.5577 962.068 120.744 1029.5 180.547C1066.31 213.197 1097.16 251.991 1120.69 295.201C1127.48 307.516 1133.62 320.259 1139.09 333.43L908.004 414.869Z" fill="#0185B2" fill-opacity="0.3"/>
<path d="M292.292 659.89C295.197 668.132 298.35 676.14 301.69 684.156C307.251 697.64 313.39 710.749 320.108 723.482C342.467 766.128 371.165 805.135 405.225 839.172C489.547 923.222 601.917 973.205 720.806 979.543C774.442 982.307 828.16 975.994 879.695 960.87L743.502 574.418L596.314 626.29L702.005 926.195C625.563 918.516 552.604 890.377 490.803 844.736C429.002 799.096 380.645 737.643 350.818 666.842C347.469 658.904 344.237 650.776 341.355 642.599C338.474 634.422 335.919 626.13 333.528 617.779C329.615 604.033 326.404 590.261 323.894 576.461C315.132 528.048 314.846 478.481 323.048 429.969C338.09 341.1 380.582 259.17 444.56 195.68L550.609 496.6L697.798 444.728L561.156 57C511.53 77.5347 465.724 106.295 425.667 142.071C337.01 221.588 280.82 331.029 267.869 449.416C262.597 497.642 264.735 546.391 274.209 593.971C276.956 607.711 280.229 621.487 284.301 635.128C286.823 643.432 289.388 651.647 292.292 659.89ZM582.37 430.214L486.81 159.059C501.069 148.242 516.005 138.348 531.528 129.437L631.433 412.923L582.37 430.214ZM757.834 928.104L662.667 658.062L711.73 640.771L811.289 923.276C793.592 926.024 775.737 927.637 757.834 928.104Z" fill="#0185B2" fill-opacity="0.3"/>
</g>
<defs>
<clipPath id="clip0">
<rect width="1168" height="1168" fill="white" transform="translate(0 143.22) rotate(-19.4133)"/>
</clipPath>
</defs>
</svg>
