<svg width="25" height="25" viewBox="0 0 25 25" fill="none" xmlns="http://www.w3.org/2000/svg">
<path d="M7.25 0H17.75C21.75 0 25 3.25 25 7.25V17.75C25 19.6729 24.2361 21.5169 22.8765 22.8765C21.5169 24.2361 19.6729 25 17.75 25H7.25C3.25 25 0 21.75 0 17.75V7.25C0 5.32718 0.763837 3.48311 2.12347 2.12347C3.48311 0.763837 5.32718 0 7.25 0ZM7 2.5C5.80652 2.5 4.66194 2.9741 3.81803 3.81803C2.9741 4.66194 2.5 5.80652 2.5 7V18C2.5 20.4875 4.5125 22.5 7 22.5H18C19.1935 22.5 20.3381 22.0259 21.182 21.182C22.0259 20.3381 22.5 19.1935 22.5 18V7C22.5 4.5125 20.4875 2.5 18 2.5H7ZM19.0625 4.375C19.4769 4.375 19.8744 4.53963 20.1674 4.83265C20.4604 5.12568 20.625 5.5231 20.625 5.9375C20.625 6.3519 20.4604 6.74933 20.1674 7.04235C19.8744 7.33538 19.4769 7.5 19.0625 7.5C18.6481 7.5 18.2506 7.33538 17.9576 7.04235C17.6646 6.74933 17.5 6.3519 17.5 5.9375C17.5 5.5231 17.6646 5.12568 17.9576 4.83265C18.2506 4.53963 18.6481 4.375 19.0625 4.375ZM12.5 6.25C14.1576 6.25 15.7474 6.90847 16.9194 8.08059C18.0915 9.25269 18.75 10.8424 18.75 12.5C18.75 14.1576 18.0915 15.7474 16.9194 16.9194C15.7474 18.0915 14.1576 18.75 12.5 18.75C10.8424 18.75 9.25269 18.0915 8.08059 16.9194C6.90847 15.7474 6.25 14.1576 6.25 12.5C6.25 10.8424 6.90847 9.25269 8.08059 8.08059C9.25269 6.90847 10.8424 6.25 12.5 6.25ZM12.5 8.75C11.5054 8.75 10.5516 9.14509 9.84835 9.84835C9.14509 10.5516 8.75 11.5054 8.75 12.5C8.75 13.4945 9.14509 14.4484 9.84835 15.1516C10.5516 15.8549 11.5054 16.25 12.5 16.25C13.4945 16.25 14.4484 15.8549 15.1516 15.1516C15.8549 14.4484 16.25 13.4945 16.25 12.5C16.25 11.5054 15.8549 10.5516 15.1516 9.84835C14.4484 9.14509 13.4945 8.75 12.5 8.75Z" fill="#0184B1"/>
</svg>
