<svg width="31" height="31" viewBox="0 0 31 31" fill="none" xmlns="http://www.w3.org/2000/svg">
<path d="M6.43638 9.2961C7.99723 9.2961 9.26255 8.03079 9.26255 6.46993C9.26255 4.90908 7.99723 3.64377 6.43638 3.64377C4.87553 3.64377 3.61021 4.90908 3.61021 6.46993C3.61021 8.03079 4.87553 9.2961 6.43638 9.2961Z" fill="#0184B1"/>
<path d="M11.9311 11.4377V27.1172H16.7994V19.3634C16.7994 17.3174 17.1843 15.336 19.7212 15.336C22.2231 15.336 22.2541 17.6752 22.2541 19.4925V27.1185H27.125V18.5199C27.125 14.2962 26.2157 11.0502 21.2789 11.0502C18.9087 11.0502 17.32 12.3509 16.6703 13.5819H16.6044V11.4377H11.9311ZM3.99771 11.4377H8.87375V27.1172H3.99771V11.4377Z" fill="#0184B1"/>
</svg>
