<svg width="46" height="46" viewBox="0 0 46 46" fill="none" xmlns="http://www.w3.org/2000/svg">
<g clip-path="url(#clip0)">
<path d="M23.0006 0C18.4515 0 14.0046 1.34897 10.2221 3.87631C6.43969 6.40366 3.49164 9.99588 1.75077 14.1987C0.00990513 18.4015 -0.445585 23.0262 0.441901 27.4879C1.32939 31.9496 3.51999 36.0479 6.73669 39.2646C9.95339 42.4813 14.0517 44.6719 18.5134 45.5594C22.9751 46.4469 27.5998 45.9914 31.8026 44.2505C36.0054 42.5097 39.5976 39.5616 42.125 35.7792C44.6523 31.9967 46.0013 27.5498 46.0013 23.0007C46.0009 16.9006 43.5775 11.0505 39.2642 6.73714C34.9508 2.42376 29.1007 0.000362203 23.0006 0V0ZM23.0006 43.9526C11.4484 43.9526 2.0487 34.5529 2.0487 23.0007C2.0487 11.4484 11.4484 2.04875 23.0006 2.04875C34.5529 2.04875 43.9525 11.4484 43.9525 23.0007C43.9525 34.5529 34.5529 43.9526 23.0006 43.9526Z" fill="#6248FF"/>
<path d="M41.8725 21.9763C41.8424 21.4163 41.7864 20.8618 41.7086 20.3155C41.4389 18.4243 40.8816 16.5856 40.0559 14.863C38.0241 10.6372 34.5044 7.3097 30.1713 5.51798C28.2152 4.71319 26.1373 4.24449 24.0251 4.13165V41.8752C26.1372 41.7621 28.2151 41.2934 30.1713 40.4889V24.0251H39.821C39.7865 24.597 39.7231 25.1668 39.6311 25.7324C39.3186 27.6286 38.6829 29.4572 37.7517 31.1384C37.0152 32.4661 36.1043 33.6894 35.0433 34.7756L36.4897 36.222C37.9486 34.7343 39.1529 33.0168 40.0545 31.1384C40.8741 29.43 41.4299 27.6073 41.7031 25.7324C41.785 25.1724 41.8415 24.6051 41.8725 24.0305C41.8916 23.6904 41.9039 23.3476 41.9039 23.0062C41.9039 22.6647 41.8916 22.3178 41.8725 21.9763ZM26.0738 39.5724V6.42899C26.767 6.55677 27.4514 6.72876 28.1226 6.94391V39.0575C27.4514 39.2726 26.767 39.4446 26.0738 39.5724V39.5724ZM30.1713 21.9763V7.75112C33.3789 9.27192 36.0297 11.7589 37.7517 14.863C38.6915 16.5576 39.3297 18.4025 39.638 20.3155C39.729 20.8618 39.79 21.4154 39.821 21.9763H30.1713Z" fill="#6248FF"/>
<path d="M4.09753 23.0007C4.09753 23.3449 4.10982 23.6836 4.12895 24.0251C4.15899 24.5987 4.21545 25.166 4.29831 25.7269C4.57054 27.6036 5.12593 29.4282 5.94551 31.1383C7.97735 35.3641 11.497 38.6917 15.8301 40.4834C17.7862 41.2882 19.8641 41.7569 21.9763 41.8697V25.7324H15.8301V38.2557C13.0912 36.9698 10.7495 34.9695 9.05139 32.4653C7.35327 29.961 6.36151 27.0454 6.18043 24.0251C6.15994 23.6863 6.14629 23.3421 6.14629 23.0007C6.14629 22.6592 6.15994 22.3178 6.18043 21.9763C6.21503 21.4145 6.27604 20.8609 6.36345 20.3155C6.67173 18.4025 7.30996 16.5576 8.24967 14.863C9.97172 11.7589 12.6225 9.27192 15.8301 7.75112V20.3168H21.9763V4.12619C19.8642 4.23932 17.7863 4.708 15.8301 5.51251C11.496 7.30557 7.97627 10.6352 5.94551 14.863C5.11838 16.5854 4.55967 18.4241 4.28875 20.3155C4.2109 20.8618 4.15217 21.4163 4.12485 21.9763C4.10982 22.3178 4.09753 22.6565 4.09753 23.0007ZM17.8788 18.2667V6.94391C18.55 6.72876 19.2344 6.55677 19.9276 6.42899V18.2667H17.8788ZM17.8788 39.0575V27.7811H19.9276V39.5778C19.2342 39.4483 18.5499 39.2745 17.8788 39.0575V39.0575Z" fill="#6248FF"/>
</g>
<defs>
<clipPath id="clip0">
<rect width="46" height="46" fill="white"/>
</clipPath>
</defs>
</svg>
