<svg width="50" height="50" viewBox="0 0 50 50" fill="none" xmlns="http://www.w3.org/2000/svg">
<path d="M24.9999 0C20.0554 0 15.2219 1.46623 11.1107 4.21326C6.99947 6.96029 3.79515 10.8648 1.90296 15.4329C0.0107717 20.0011 -0.484312 25.0277 0.480318 29.8772C1.44495 34.7268 3.82597 39.1814 7.32228 42.6776C10.8186 46.174 15.2732 48.555 20.1227 49.5196C24.9722 50.4842 29.9988 49.9892 34.567 48.097C39.1352 46.2048 43.0396 43.0005 45.7867 38.8893C48.5337 34.778 49.9999 29.9445 49.9999 25C49.9995 18.3697 47.3655 12.0111 42.6772 7.32276C37.9889 2.63444 31.6302 0.000393687 24.9999 0ZM24.9999 47.7731C12.4435 47.7731 2.22679 37.5564 2.22679 25C2.22679 12.4436 12.4435 2.22684 24.9999 2.22684C37.5563 2.22684 47.7731 12.4436 47.7731 25C47.7731 37.5564 37.5563 47.7731 24.9999 47.7731Z" fill="#00AAFF"/>
<path d="M45.5122 23.8866C45.4795 23.2779 45.4186 22.6752 45.334 22.0814C45.0409 20.0258 44.4352 18.0273 43.5377 16.1549C41.3293 11.5619 37.5037 7.94507 32.7939 5.99761C30.6678 5.12287 28.4092 4.61343 26.1135 4.49078V45.5152C28.4092 45.3922 30.6677 44.8827 32.7939 44.0083V26.1134H43.2824C43.2449 26.735 43.176 27.3544 43.076 27.9691C42.7364 30.0302 42.0454 32.0177 41.0333 33.845C40.2327 35.2882 39.2426 36.6178 38.0894 37.7984L39.6615 39.3705C41.2472 37.7535 42.5563 35.8868 43.5362 33.845C44.427 31.9882 45.0311 30.0071 45.3281 27.9691C45.4172 27.3604 45.4786 26.7439 45.5122 26.1194C45.533 25.7496 45.5464 25.377 45.5464 25.0059C45.5464 24.6348 45.533 24.2577 45.5122 23.8866ZM28.3403 43.0122V6.98781C29.0937 7.1267 29.8375 7.31363 30.5671 7.54749V42.4525C29.8375 42.6863 29.0937 42.8733 28.3403 43.0122ZM32.7939 23.8866V8.42487C36.2803 10.0778 39.1615 12.7811 41.0333 16.1549C42.0547 17.9968 42.7484 20.0021 43.0835 22.0814C43.1824 22.6752 43.2487 23.2769 43.2824 23.8866H32.7939Z" fill="#00AAFF"/>
<path d="M4.23718 24.7523C4.23718 25.1264 4.25055 25.4946 4.27133 25.8657C4.30399 26.4892 4.36535 27.1058 4.45541 27.7154C4.75131 29.7554 5.35497 31.7385 6.24579 33.5973C8.45427 38.1905 12.2798 41.8072 16.9895 43.7547C19.1157 44.6294 21.3743 45.1388 23.6701 45.2615V27.7214H16.9895V41.3333C14.0126 39.9357 11.4674 37.7615 9.62169 35.0395C7.77593 32.3177 6.69796 29.1485 6.50114 25.8657C6.47887 25.4975 6.46402 25.1234 6.46402 24.7523C6.46402 24.3811 6.47887 24.01 6.50114 23.6389C6.53875 23.0282 6.60506 22.4264 6.70007 21.8337C7.03514 19.7544 7.72885 17.7491 8.75028 15.9073C10.622 12.5333 13.5032 9.8302 16.9895 8.17717V21.8351H23.6701V4.23715C21.3743 4.36011 19.1158 4.86954 16.9895 5.74398C12.2788 7.6929 8.45308 11.3119 6.24579 15.9073C5.34678 17.7793 4.73949 19.7779 4.44502 21.8337C4.3604 22.4275 4.29656 23.0302 4.26688 23.6389C4.25055 24.01 4.23718 24.3782 4.23718 24.7523ZM19.2164 19.6068V7.2998C19.946 7.06594 20.6898 6.879 21.4432 6.74012V19.6068H19.2164ZM19.2164 42.2047V29.9482H21.4432V42.7704C20.6897 42.6296 19.9459 42.4407 19.2164 42.2047Z" fill="#00AAFF"/>
</svg>
