<svg width="49" height="49" viewBox="0 0 49 49" fill="none" xmlns="http://www.w3.org/2000/svg">
<g clip-path="url(#clip0)">
<path d="M24.5007 0C19.6549 0 14.9179 1.43694 10.8888 4.12912C6.85968 6.82129 3.71936 10.6478 1.86496 15.1247C0.0105551 19.6016 -0.474641 24.5279 0.470724 29.2806C1.41609 34.0333 3.74956 38.3989 7.17604 41.8254C10.6025 45.2518 14.9681 47.5853 19.7208 48.5307C24.4735 49.476 29.3998 48.9908 33.8767 47.1364C38.3536 45.282 42.1801 42.1417 44.8723 38.1126C47.5644 34.0835 49.0014 29.3465 49.0014 24.5007C49.001 18.0028 46.4196 11.7712 41.8249 7.17652C37.2302 2.58183 30.9985 0.000385825 24.5007 0ZM24.5007 46.8191C12.195 46.8191 2.18232 36.8064 2.18232 24.5007C2.18232 12.1951 12.195 2.18237 24.5007 2.18237C36.8063 2.18237 46.819 12.1951 46.819 24.5007C46.819 36.8064 36.8063 46.8191 24.5007 46.8191Z" fill="#573BFF"/>
<path d="M44.6033 23.4095C44.5712 22.813 44.5116 22.2223 44.4287 21.6404C44.1415 19.6259 43.5478 17.6673 42.6682 15.8324C40.5039 11.3309 36.7547 7.7864 32.139 5.87783C30.0553 5.02056 27.8419 4.52129 25.5919 4.40109V44.6062C27.8418 44.4857 30.0552 43.9864 32.139 43.1294V25.5919H42.418C42.3812 26.2011 42.3137 26.8081 42.2157 27.4106C41.8829 29.4305 41.2057 31.3783 40.2138 33.1691C39.4292 34.5835 38.4589 35.8865 37.3287 37.0435L38.8694 38.5843C40.4235 36.9996 41.7064 35.1701 42.6668 33.1691C43.5397 31.3493 44.1318 29.4078 44.4228 27.4106C44.5101 26.814 44.5703 26.2098 44.6033 25.5977C44.6236 25.2355 44.6367 24.8703 44.6367 24.5065C44.6367 24.1428 44.6236 23.7733 44.6033 23.4095ZM27.7743 42.1532V6.84826C28.5127 6.98437 29.2416 7.16757 29.9567 7.39676V41.6047C29.2416 41.8339 28.5127 42.0171 27.7743 42.1532ZM32.139 23.4095V8.25661C35.5557 9.87659 38.3794 12.5258 40.2138 15.8324C41.2148 17.6374 41.8946 19.6026 42.223 21.6404C42.32 22.2223 42.385 22.8121 42.418 23.4095H32.139Z" fill="#573BFF"/>
<path d="M4.36475 24.5007C4.36475 24.8674 4.37784 25.2282 4.39821 25.5919C4.43021 26.203 4.49035 26.8073 4.57862 27.4047C4.8686 29.4039 5.46021 31.3474 6.33324 33.1691C8.4976 37.6705 12.2468 41.215 16.8624 43.1236C18.9461 43.9809 21.1596 44.4802 23.4095 44.6004V27.4106H16.8624V40.7507C13.9449 39.3809 11.4505 37.2502 9.64168 34.5826C7.83282 31.915 6.77637 28.8092 6.58349 25.5919C6.56166 25.2311 6.54711 24.8645 6.54711 24.5007C6.54711 24.137 6.56166 23.7733 6.58349 23.4095C6.62034 22.8111 6.68533 22.2214 6.77844 21.6404C7.10682 19.6026 7.78667 17.6374 8.78767 15.8324C10.622 12.5258 13.4457 9.87661 16.8624 8.25663V21.6418H23.4095V4.39529C21.1596 4.5158 18.9462 5.01505 16.8624 5.87203C12.2458 7.78202 8.49645 11.3288 6.33324 15.8324C5.45217 17.667 4.85702 19.6257 4.56843 21.6404C4.4855 22.2223 4.42294 22.813 4.39384 23.4095C4.37784 23.7733 4.36475 24.1341 4.36475 24.5007ZM19.0448 19.458V7.39678C19.7598 7.16759 20.4888 6.98439 21.2272 6.84828V19.458H19.0448ZM19.0448 41.6047V29.5929H21.2272V42.159C20.4886 42.021 19.7597 41.8358 19.0448 41.6047Z" fill="#573BFF"/>
</g>
<defs>
<clipPath id="clip0">
<rect width="49" height="49" fill="white"/>
</clipPath>
</defs>
</svg>
