<svg width="73" height="44" viewBox="0 0 73 44" fill="none" xmlns="http://www.w3.org/2000/svg">
<g clip-path="url(#clip0)">
<path d="M36.4427 43.9851C35.2265 43.988 34.0479 43.4768 33.1114 42.5402L1.88038 11.1278C0.817398 10.0615 0.148926 8.52909 0.0220257 6.86784C-0.104875 5.20659 0.320189 3.55254 1.20371 2.26955C2.08723 0.986568 3.35683 0.179749 4.73321 0.0265843C6.1096 -0.12658 7.48002 0.386455 8.543 1.45283L36.4427 29.5983L64.3425 2.45803C64.8749 1.93617 65.4875 1.54646 66.1452 1.3113C66.8028 1.07613 67.4924 1.00015 68.1744 1.08773C68.8565 1.1753 69.5174 1.42469 70.1193 1.82158C70.7213 2.21847 71.2522 2.75502 71.6818 3.4004C72.1585 4.04637 72.5195 4.8042 72.7422 5.62641C72.965 6.44862 73.0446 7.31749 72.9762 8.17859C72.9078 9.03968 72.6928 9.87445 72.3447 10.6306C71.9965 11.3867 71.5228 12.0479 70.9531 12.5728L39.722 42.9171C38.7586 43.7057 37.604 44.0817 36.4427 43.9851Z" fill="#00AAFF"/>
</g>
<defs>
<clipPath id="clip0">
<rect width="73" height="44" fill="white"/>
</clipPath>
</defs>
</svg>
